#define bluetooth_width 8
#define bluetooth_height 16
static unsigned char bluetooth_bits[] = {
   0x08, 0x18, 0x38, 0x68, 0xcb, 0x4e, 0x2c, 0x18, 0x1c, 0x2e, 0x4b, 0xc8,
   0x68, 0x38, 0x18, 0x08 };
