#define car_width 19
#define car_height 12
static unsigned char car_bits[] = {
   0xf8, 0x07, 0x00, 0xfc, 0x0f, 0x00, 0x46, 0x18, 0x00, 0x46, 0x30, 0x00,
   0x42, 0x60, 0x00, 0xff, 0xff, 0x03, 0xff, 0xff, 0x07, 0xff, 0xff, 0x07,
   0xc7, 0x1f, 0x07, 0xbb, 0xef, 0x06, 0x38, 0xe0, 0x00, 0x38, 0xe0, 0x00 };
