#define fan_width 16
#define fan_height 16
static unsigned char fan_bits[] = {
   0x70, 0x00, 0xfc, 0x38, 0xfe, 0x78, 0xfe, 0x7d, 0xfe, 0xfd, 0xf8, 0xfd,
   0xc0, 0xff, 0xf8, 0x7f, 0xfe, 0x1f, 0xff, 0x03, 0xbf, 0x1f, 0xbf, 0x7f,
   0xbe, 0x7f, 0x1e, 0x7f, 0x1c, 0x3f, 0x00, 0x0e };
