#define gps_width 16
#define gps_height 16
static unsigned char gps_bits[] = {
   0x20, 0x00, 0x70, 0x00, 0xc8, 0x00, 0x84, 0x01, 0x08, 0x0f, 0x10, 0x0f,
   0xe0, 0x0f, 0xc0, 0x1f, 0xc5, 0x33, 0xcd, 0x63, 0x09, 0xc2, 0x1a, 0x44,
   0x72, 0x28, 0xc4, 0x10, 0x18, 0x00, 0xe0, 0x00 };
