#define lora_sending_width 16
#define lora_sending_height 14
static unsigned char lora_sending_bits[] = {
   0xc0, 0x03, 0x38, 0x1c, 0x06, 0x60, 0xe1, 0x87, 0x18, 0x18, 0x04, 0x20,
   0xe0, 0x07, 0x10, 0x08, 0xc0, 0x03, 0xe0, 0x07, 0xe0, 0x07, 0xe0, 0x07,
   0xe0, 0x07, 0xc0, 0x03 };
