#define ttn_sending_width 26
#define ttn_sending_height 12
static unsigned char ttn_sending_bits[] = {
   0x00, 0xf0, 0x00, 0x00, 0x00, 0xf8, 0xe1, 0x00, 0xc0, 0xfd, 0x03, 0x01,
   0xe0, 0xff, 0xdb, 0x02, 0xf0, 0xff, 0xbf, 0x02, 0xf8, 0xff, 0x7f, 0x02,
   0xfc, 0xff, 0x7f, 0x00, 0xfe, 0xff, 0x3f, 0x00, 0xff, 0xff, 0x7f, 0x00,
   0xff, 0xff, 0xff, 0x00, 0xff, 0xff, 0xff, 0x00, 0xfe, 0xff, 0x7f, 0x00 };
