#define ttn_not_sending_width 26
#define ttn_not_sending_height 12
static unsigned char ttn_not_sending_bits[] = {
   0x00, 0xf0, 0x00, 0x00, 0x00, 0xf8, 0x01, 0x00, 0xc0, 0xfd, 0x03, 0x00,
   0xe0, 0xff, 0x1b, 0x00, 0xf0, 0xff, 0x3f, 0x00, 0xf8, 0xff, 0x7f, 0x00,
   0xfc, 0xff, 0x7f, 0x00, 0xfe, 0xff, 0x3f, 0x00, 0xff, 0xff, 0x7f, 0x00,
   0xff, 0xff, 0xff, 0x00, 0xff, 0xff, 0xff, 0x00, 0xfe, 0xff, 0x7f, 0x00 };
